# Exported from OpenRPG Workshop
o mesh
v -0.5 -0.5 0
v 0.5 -0.5 0
v 0.5 0.5 0
v -0.5 0.5 0
v -0.5 0.5 0
v 0 0.5 0
v 0 1 0
v -0.5 1 0
v -0.5 0.5 0.5
v 0 0.5 0.5
v 0 1 0.5
v -0.5 1 0.5
vn 0 0 1
vn 0 0 1
vn 0 0 1
vn 0 0 1
vn 0.57735 0.57735 0.57735
vn -0.816497 0.408248 0.408248
vn -0.408248 -0.408248 0.816497
vn 0.408248 -0.816497 0.408248
vn 0.57735 0.57735 -0.57735
vn -0.333333 0.666667 -0.666667
vn -0.666667 -0.666667 -0.333333
vn 0.666667 -0.333333 -0.666667
f 1//1 2//2 3//3
f 1//1 3//3 4//4
f 5//5 6//6 7//7
f 5//5 7//7 8//8
f 10//10 9//9 12//12
f 10//10 12//12 11//11
f 5//5 9//9 10//10
f 5//5 10//10 6//6
f 8//8 7//7 11//11
f 8//8 11//11 12//12
f 5//5 8//8 12//12
f 5//5 12//12 9//9
f 6//6 10//10 11//11
f 6//6 11//11 7//7
